# xmcd
#
# Track frame offsets:
#	150
#	15503
#	32436
#	51021
#	72840
#	85232
#	103721
#	122862
#	140735
#	158301
#
# Disc length: 2245 seconds
#
# Revision: 1
# Processed by: cddbd v1.5.2PL0 Copyright (c) Steve Scherf et al.
# Submitted via: EasyCDDAExtractor 7.5.0.1
#
DISCID=7708c30a
DTITLE=Deniz Seki - Asklarin En Güzeli
DYEAR=2003
DGENRE=Pop
TTITLE0=Yarim Kalan Ask
TTITLE1=Böyle Gelmis Böyle Gider
TTITLE2=Kalbimi Kim Caliyor
TTITLE3=Sen Bensiz Ben Sensiz
TTITLE4=Askina Doyum Olmaz
TTITLE5=Rüzgar Gibi Gectin
TTITLE6=Ölsemde Bir Kalsam Da Bir
TTITLE7=Anlamadım Gitti
TTITLE8=Sensiz Saadet
TTITLE9=Ask Dedigin Laftır
EXTD=
EXTT0=
EXTT1=
EXTT2=
EXTT3=
EXTT4=
EXTT5=
EXTT6=
EXTT7=
EXTT8=
EXTT9=
PLAYORDER=
